# xmcd
#
# Track frame offsets:
#	150
#	11356
#	26754
#	42027
#	58154
#	76821
#	92585
#	108549
#	120698
#	132821
#	146297
#	166458
#	182250
#	191730
#	202664
#	223679
#
# Disc length: 2988 seconds
#
# Revision: 1
# Processed by: cddbd v1.5.2PL0 Copyright (c) Steve Scherf et al.
# Submitted via: audiograbber 1.83.01
#
DISCID=cd0baa10
DTITLE=All Star Karaoke - ASK46A
DYEAR=1900
DGENRE=Karaoke
TTITLE0=Conway Twitty and Loretta Lynn - Louisiana Woman, Mississippi Man
TTITLE1=Gretchen Wilson - Here For the Party
TTITLE2=Gretchen Wilson - Homewrecker
TTITLE3=Gretchen Wilson - Redneck Woman
TTITLE4=Hank Williams, Jr - Family Tradition
TTITLE5=Hank Williams, Jr and Kid Rock - The F Word
TTITLE6=Jessie Colter - I'm Not Lisa
TTITLE7=Johnny Cash - Folsom Prison Blues
TTITLE8=Johnny Cash - I Walk the Line
TTITLE9=Johnny Cash - Man In Black
TTITLE10=Kris Kristofferson - Silver Tongued Devil And I
TTITLE11=Kris Kristofferson - Why Me Lord
TTITLE12=Loretta Lynn - Don't Come Home A Drinkin'
TTITLE13=Loretta Lynn - I'm A Honky Tonk Girl
TTITLE14=Merle Haggard - Mama Tried
TTITLE15=All Star Karaoke - Data Track
EXTD=
EXTT0=
EXTT1=
EXTT2=
EXTT3=
EXTT4=
EXTT5=
EXTT6=
EXTT7=
EXTT8=
EXTT9=
EXTT10=
EXTT11=
EXTT12=
EXTT13=
EXTT14=
EXTT15=
PLAYORDER=
